C:\GBW_MyPrograms\KinderuniversiteitApp\Resultaten\Ellis_v10102025\Reus\Reus_v2.mot
version=1
nRows=18
nColumns=29
inDegrees=yes
endheader
                time	         pelvis_tilt	           pelvis_tx	           pelvis_ty	       hip_flexion_l	       hip_flexion_r	        knee_angle_l	        knee_angle_r	       ankle_angle_l	       ankle_angle_r	    lumbar_extension	hamstrings_r/activation	bifemsh_r/activation	glut_max_r/activation	iliopsoas_r/activation	rect_fem_r/activation	  vasti_r/activation	gastroc_r/activation	 soleus_r/activation	tib_ant_r/activation	hamstrings_l/activation	bifemsh_l/activation	glut_max_l/activation	iliopsoas_l/activation	rect_fem_l/activation	  vasti_l/activation	gastroc_l/activation	 soleus_l/activation	tib_ant_l/activation	
          0.10000003	         -7.61695505	          0.27041571	          0.78386781	         20.60361088	         19.60527704	        -26.51227536	        -27.93423389	          5.31574493	          5.51356560	         -7.67321460	          0.46380587	          0.50406865	          0.46653141	          0.50213077	          0.49094796	          0.45488954	          0.48901733	          0.46667094	          0.48077762	          0.50075863	          0.48795026	          0.52968091	          0.44889152	          0.48506042	          0.51587136	          0.49113200	          0.50719690	          0.44023482	
          0.10200003	         -7.63027445	          0.83902098	          0.78415943	         20.05912230	         19.99928765	        -27.09150647	        -27.66594799	          5.41285578	          5.50862538	         -7.66699618	          0.45657967	          0.50006848	          0.47073796	          0.49448369	          0.49566432	          0.47237493	          0.48384666	          0.47540948	          0.47703896	          0.49977646	          0.48903051	          0.52801452	          0.45053560	          0.48561228	          0.51304762	          0.49348718	          0.50941544	          0.43751711	
          0.10400003	         -7.65171415	          0.99030566	          0.78285604	         19.48253697	         20.43034581	        -27.73794455	        -27.20820465	          5.46762717	          5.58939163	         -7.66063903	          0.44941021	          0.49216993	          0.48429921	          0.48412124	          0.50005591	          0.48889353	          0.47705143	          0.48559957	          0.47008654	          0.50047249	          0.48861481	          0.53077311	          0.44625463	          0.48472505	          0.51519764	          0.48952179	          0.50414487	          0.43952497	
          0.10600003	         -7.66108149	          1.07719361	          0.78331198	         19.38069271	         20.94223374	        -27.69867929	        -26.65824060	          5.51030129	          5.59054831	         -7.65468244	          0.44726759	          0.48639563	          0.49626004	          0.47513499	          0.50154922	          0.50295521	          0.47642395	          0.49596322	          0.46235587	          0.49569910	          0.48470075	          0.53577769	          0.44071426	          0.48700279	          0.52315607	          0.48189286	          0.49532085	          0.44605106	
          0.10800003	         -7.67663253	          1.13282205	          0.78456326	         19.12789368	         21.39447872	        -28.82239746	        -26.19270001	          5.55908103	          5.56776038	         -7.64937379	          0.44465526	          0.48244919	          0.50544573	          0.46780595	          0.50222687	          0.51464213	          0.47772477	          0.50491465	          0.45560822	          0.49019617	          0.48225748	          0.53802895	          0.43976257	          0.48872289	          0.52707043	          0.47538677	          0.48565690	          0.45283847	
          0.11000003	         -7.65268551	          1.16987615	          0.78538665	         20.36482051	         21.21161573	        -26.98805755	        -26.76219296	          5.57721958	          5.65028032	         -7.64611738	          0.43628445	          0.48022323	          0.50242103	          0.46967463	          0.50598946	          0.52401663	          0.47980413	          0.51183165	          0.45050432	          0.48042139	          0.48309836	          0.52913846	          0.45248092	          0.49334303	          0.51917447	          0.47022195	          0.47531900	          0.46055549	
          0.11200003	         -7.62033278	          1.19504246	          0.78572763	         21.63690418	         21.68734178	        -25.03640491	        -26.55128102	          5.63875187	          5.60093700	         -7.64364211	          0.44203052	          0.47851346	          0.50890439	          0.46381081	          0.50477422	          0.53212630	          0.48016877	          0.51642390	          0.44702489	          0.48150527	          0.48586212	          0.52285598	          0.46008735	          0.49192362	          0.50839911	          0.46526729	          0.46457683	          0.46835051	
          0.11400003	         -7.66993838	          1.21234084	          0.78627362	         21.34935091	         21.66866192	        -25.52838069	        -27.03622891	          5.64445841	          5.53874418	         -7.64022394	          0.44945062	          0.47674199	          0.51574376	          0.45754104	          0.50275607	          0.53888218	          0.47961888	          0.51946709	          0.44450354	          0.48682467	          0.48937217	          0.51786707	          0.46581148	          0.48840769	          0.49629918	          0.46094542	          0.45318187	          0.47606292	
          0.11600003	         -7.76128161	          1.22434094	          0.78658321	         20.36424446	         21.33006996	        -26.58068810	        -28.58506129	          5.57259201	          5.45972466	         -7.63568999	          0.45270194	          0.47515639	          0.52082218	          0.45279893	          0.50185883	          0.54412455	          0.47900726	          0.52127700	          0.44279702	          0.49091162	          0.49361859	          0.51088955	          0.47263154	          0.48524173	          0.48367963	          0.45729441	          0.44143320	          0.48359061	
          0.11800003	         -7.84798500	          1.23274123	          0.78634426	         19.30120773	         21.44677463	        -27.66061304	        -30.41758904	          5.41583770	          5.36596815	         -7.63034816	          0.45444789	          0.47427178	          0.52387498	          0.44995292	          0.50138039	          0.54737967	          0.47959806	          0.52237100	          0.44134510	          0.49478182	          0.49767407	          0.50377506	          0.47770537	          0.48233326	          0.47145496	          0.45412278	          0.42985666	          0.49015288	
          0.12000003	         -7.87399085	          1.23868067	          0.78576707	         19.28416416	         22.45449577	        -28.56516822	        -32.97462754	          5.15562026	          5.27708701	         -7.62616611	          0.45352980	          0.47482991	          0.52382748	          0.45108066	          0.50104985	          0.54712344	          0.48119907	          0.52212265	          0.44124769	          0.49578742	          0.49959299	          0.49901045	          0.47862383	          0.48132696	          0.46115105	          0.45244461	          0.42080399	          0.49213750	
          0.12200003	         -7.82344454	          1.24290866	          0.78444151	         20.00660476	         24.40149961	        -29.30220398	        -35.19466612	          4.78156515	          5.20422029	         -7.62347351	          0.44995414	          0.47731824	          0.51869300	          0.45910251	          0.50153273	          0.54160879	          0.48397780	          0.52074551	          0.44269944	          0.49408315	          0.49954062	          0.49615806	          0.47734029	          0.48202757	          0.45865830	          0.45536045	          0.42647960	          0.48834246	
          0.12400003	         -7.75244697	          1.24593649	          0.78489699	         20.93565204	         25.41650064	        -29.62140839	        -35.78476292	          4.44244990	          5.15572789	         -7.62226701	          0.44981525	          0.48120669	          0.51350127	          0.46720688	          0.50096831	          0.53306724	          0.48781476	          0.51929295	          0.44405164	          0.49673378	          0.49954273	          0.49844822	          0.47358758	          0.48060397	          0.45931688	          0.46269425	          0.43745855	          0.48248030	
          0.12600003	         -7.62024565	          1.24811108	          0.78424641	         21.86316437	         26.55409388	        -29.22573779	        -36.52958159	          3.88011611	          5.10541453	         -7.62308791	          0.45165868	          0.48600345	          0.50738598	          0.47587825	          0.49993613	          0.52189135	          0.49222391	          0.51730168	          0.44533432	          0.49949348	          0.49827119	          0.50373591	          0.46703017	          0.47897207	          0.46622920	          0.46634872	          0.44490415	          0.47874024	
          0.12800003	         -7.58747595	          1.24967949	          0.78245313	         22.23983164	         24.90403466	        -28.38961394	        -35.74752573	          2.96074709	          5.04227091	         -7.62523213	          0.45297702	          0.49089845	          0.50097806	          0.48357322	          0.49854358	          0.51044806	          0.49614110	          0.51488504	          0.44630433	          0.50202731	          0.49602749	          0.51002711	          0.45858809	          0.47767960	          0.47679814	          0.46333768	          0.44411075	          0.47953613	
          0.13000003	         -7.56862220	          1.25082377	          0.78287868	         22.83237738	         23.01286834	        -28.76651720	        -32.71915595	          1.59353677	          5.01246545	         -7.62790834	          0.45516163	          0.49440181	          0.49719342	          0.48728767	          0.49782677	          0.50274638	          0.49717009	          0.51145002	          0.44793084	          0.50657745	          0.49204519	          0.51906044	          0.44816372	          0.47540955	          0.48881815	          0.44907414	          0.43067765	          0.48751454	
          0.13200004	         -7.59334116	          1.25166215	          0.78388809	         22.08362093	         21.74148656	        -29.20152228	        -28.46439030	          1.19912345	          4.94456427	         -7.63165203	          0.45558847	          0.49519715	          0.49621931	          0.48735339	          0.49823580	          0.50185084	          0.49339795	          0.50434467	          0.45241979	          0.51072635	          0.48756923	          0.52807187	          0.43904768	          0.47277661	          0.49839942	          0.43962840	          0.41925146	          0.49884757	
          0.13400004	         -7.56920773	          1.25227329	          0.78389319	         22.14851784	         22.03470783	        -28.10832636	        -28.48160494	          2.12941676	          4.80283854	         -7.63542243	          0.45644412	          0.49620919	          0.49383062	          0.48724113	          0.49817145	          0.49912609	          0.49128198	          0.49846430	          0.45450967	          0.51334951	          0.48661080	          0.53071726	          0.43798742	          0.46942432	          0.48892114	          0.45611817	          0.44189095	          0.48712042	
